<svg xmlns="http://www.w3.org/2000/svg" viewBox="2.1 1.63 19.8 20.74" role="img" aria-label="xtyle"><g transform="translate(12 12) scale(-.9 1) translate(-12 -12)"><path fill="#caccd2" fill-rule="evenodd" d="M7 2 1 4.3 1 21.96 7 19.65Z M1 10.56 7 8.26 7 9.16 1 11.46Z M1 16.74 7 14.43 7 15.33 1 17.64Z"/><path fill="#aeb1b6" fill-rule="evenodd" d="M9 1.63 15 4.63 15 22.37 9 19.37Z M9 7.92 15 10.92 15 11.82 9 8.82Z M9 14.13 15 17.13 15 18.03 9 15.03Z"/><path fill="#caccd2" fill-rule="evenodd" d="M17 4.35 23 2.04 23 19.69 17 21.99Z M17 10.6 23 8.3 23 9.2 17 11.5Z M17 16.78 23 14.47 23 15.37 17 17.68Z"/></g></svg>
